<?xml version="1.0" encoding="UTF-8"?>
<!DOCTYPE svg PUBLIC "-//W3C//DTD SVG 1.0//EN" "http://www.w3.org/TR/2001/REC-SVG-20010904/DTD/svg10.dtd">
<!-- Creator: CorelDRAW 2018 (64 Bit) -->
<svg xmlns="http://www.w3.org/2000/svg" xml:space="preserve" width="230.542mm" height="41.4812mm" version="1.0" style="shape-rendering:geometricPrecision; text-rendering:geometricPrecision; image-rendering:optimizeQuality; fill-rule:evenodd; clip-rule:evenodd"
viewBox="0 0 22762.42 4095.61"
 xmlns:xlink="http://www.w3.org/1999/xlink">
 <defs>
  <style type="text/css">
   <![CDATA[
    .fil5 {fill:#FDE1D8;fill-rule:nonzero}
    .fil6 {fill:#FBB659;fill-rule:nonzero}
    .fil3 {fill:#F15F60;fill-rule:nonzero}
    .fil1 {fill:#EDE2D1;fill-rule:nonzero}
    .fil2 {fill:#D3B88F;fill-rule:nonzero}
    .fil0 {fill:#474645;fill-rule:nonzero}
    .fil4 {fill:#6F82A5;fill-rule:nonzero}
   ]]>
  </style>
   <clipPath id="id0">
    <path d="M4887.7 3786.18l-1805.67 0 0 -3527.86 1805.67 0 0 3527.86 0 0z"/>
   </clipPath>
   <clipPath id="id1">
    <path d="M7437.53 3962.02l-2173.91 0 0 -3293.43 2173.91 0 0 3293.43 0 0z"/>
   </clipPath>
   <clipPath id="id2">
    <path d="M9635.85 3986.6l-1496.52 0 0 -3577.34 1496.52 0 0 3577.34 0 0z"/>
   </clipPath>
   <clipPath id="id3">
    <path d="M11616.8 4095.57l-1420.78 0 0 -4095.57 2390.51 0 0 3443.13 -216.63 0 104.56 -2982.1 -1895.06 -77.03 -379.97 3103.48 1417.36 112.05 0 496.04 0 0z"/>
   </clipPath>
   <clipPath id="id4">
    <path d="M17669.25 3961.52l-1730.39 0 0 -3151.47 1730.39 0 0 3151.47 0 0z"/>
   </clipPath>
   <clipPath id="id5">
    <path d="M20679.02 4045.88l-2441.66 0 0 -3553.11 2441.66 0 0 3553.11 0 0z"/>
   </clipPath>
   <clipPath id="id6">
    <path d="M12586.69 4095.61l-969.7 0 0 -496.5 745.51 58.93 7.57 -214.58 216.61 0 0 652.15 0 0z"/>
   </clipPath>
   <clipPath id="id7">
    <path d="M12362.63 3657.98l-745.65 -58.91 0 -155.54 753.11 0 -7.45 214.45 0 0z"/>
   </clipPath>
 </defs>
 <g id="Camada_x0020_1">
  <metadata id="CorelCorpID_0Corel-Layer"/>
  <path class="fil0" d="M266.48 573.82l-266.48 2760.1 2569.75 -19.05 -114.25 -2721.99 -2189.02 -19.06z"/>
  <path class="fil1" d="M1541.12 3056.41l-226.39 0 0 60.58 1042.69 0 0 -60.58 -146.68 0 -803.55 -2190.62 -261.47 0 -813.11 2190.62 -149.87 0 0 60.58 487.87 0 0 -60.58 -239.15 0 245.53 -688.75 631.36 0 232.77 688.75zm-535.69 -1594.33l277.41 835.43 -577.15 0 299.74 -835.43z"/>
  <g style="clip-path:url(#id0)">
   <image x="3073.23" y="247.25" width="1825.85" height="3550" xlink:href="letras_Images\letras_ImgID1.png"/>
  </g>
  <path class="fil2" d="M3084.45 328.23l48.76 2665.53 1397.81 -32.49 243.78 -2698.07 -1690.36 65.04z"/>
  <path class="fil0" d="M3660.93 1518.97c62.2,-225.92 91.67,-422.38 91.67,-589.36 0,-75.3 -9.82,-140.79 -26.19,-193.18 -19.65,-52.39 -39.29,-78.58 -62.21,-78.58 -45.84,0 -94.95,29.47 -144.06,85.14 -52.39,58.93 -101.51,140.79 -150.62,248.84 -49.11,108.04 -88.41,258.66 -117.87,445.3 -29.47,186.63 -45.84,386.36 -45.84,595.91 0,209.55 22.92,363.44 65.48,458.39 42.57,98.23 130.97,147.34 261.94,147.34 130.97,0 261.94,-52.39 392.91,-160.43 130.97,-104.78 209.55,-255.4 235.75,-448.58 124.42,-45.83 219.38,-91.67 281.58,-137.52 62.21,-45.84 91.68,-78.58 91.68,-101.5 0,-22.93 -6.55,-32.74 -19.65,-32.74 -3.28,0 -39.29,19.64 -108.04,55.66 -68.77,36.02 -150.62,68.76 -239.03,94.95 -3.28,-130.97 -36.02,-232.47 -101.5,-307.77 -65.49,-72.04 -147.34,-108.05 -248.85,-108.05 -62.2,0 -114.59,9.82 -157.16,26.19zm170.26 874.22c-75.3,65.49 -150.62,98.23 -225.92,98.23 -49.11,0 -81.86,-36.02 -104.78,-108.04 -22.92,-72.04 -36.02,-189.92 -39.29,-356.89 29.46,-49.12 52.39,-101.51 75.3,-157.17 22.92,68.76 68.76,121.15 137.52,157.17 65.49,39.29 127.69,58.93 183.36,58.93 55.67,0 91.67,0 108.04,-3.28 -16.37,144.07 -62.2,248.85 -134.24,311.05zm-373.26 -530.42c0,-160.44 13.09,-320.89 36.02,-484.6 22.92,-160.43 45.84,-291.4 75.3,-386.36 26.19,-94.95 49.11,-140.79 68.76,-140.79 22.93,0 36.02,45.84 36.02,137.52 0,173.54 -72.04,464.95 -216.1,874.23zm461.67 -150.62c32.74,68.76 49.11,147.34 52.39,235.75 -85.13,0 -157.17,-22.93 -216.1,-68.76 -62.21,-42.56 -91.68,-98.23 -91.68,-166.99 0,-29.47 9.82,-55.67 29.47,-75.3 16.37,-16.38 42.56,-26.19 72.03,-26.19 68.77,0 121.16,32.74 153.9,101.5z"/>
  <g style="clip-path:url(#id1)">
   <image x="5253.67" y="658.26" width="2195.06" height="3313.15" xlink:href="letras_Images\letras_ImgID2.png"/>
  </g>
  <path class="fil1" d="M5501.28 1292.64l-141.58 1740.62 1751.31 275.27c0,0 253.89,-1919.73 205.75,-1927.78 -48.13,-8.01 -1815.48,-88.12 -1815.48,-88.12z"/>
  <path class="fil3" d="M6962.08 1739.47l1.64 -9.86c2.05,-12.33 -0.41,-27.95 -10.69,-42.34 -7.39,-16.44 -23.43,-26.71 -43.16,-30 -14.79,-2.47 -30.41,0 -41.92,8.22 -13.97,7.81 -23.42,18.91 -28.36,33.29l-80.54 240.02c-36.99,-82.2 -94.54,-147.54 -167.29,-197.68 -70.29,-49.72 -153.72,-81.37 -244.96,-96.57 -101.11,-16.84 -195.23,-14.77 -280.31,9.06 -82.6,24.26 -157.4,62.49 -221.92,115.09 -62.47,55.49 -117.13,124.96 -158.63,206.75 -41.52,81.79 -71.92,173.03 -88.76,274.14 -15.61,93.71 -15.2,182.48 3.72,266.74 18.91,84.25 52.2,158.23 99.88,221.93 47.27,66.16 106.46,121.64 177.98,163.97 73.57,45.21 154.95,73.97 248.66,89.58 59.18,9.86 112.2,11.1 163.57,6.98 51.8,-6.59 99.05,-16.45 144.68,-31.66 43.56,-18.08 82.2,-37 119.18,-61.23 36.99,-24.26 66.58,-49.74 94.11,-78.1 27.12,-25.9 52.19,-54.67 69.86,-84.67 20.13,-29.59 34.52,-55.08 43.97,-81.38 2.87,-2.05 3.7,-7 4.52,-11.93 2.46,-14.79 -2.46,-30.82 -12.33,-47.68 -10.27,-14.38 -23.84,-24.24 -41.1,-27.11 -14.79,-2.47 -27.94,0.4 -41.91,8.22 -11.51,8.21 -20.97,19.31 -28.37,33.29 -15.61,32.88 -33.7,65.35 -59.18,96.59 -28.36,33.28 -55.88,61.64 -90.41,86.31 -34.1,22.19 -70.27,41.51 -108.08,55.49 -39.87,11.1 -80.96,14.39 -120.42,7.82 -56.72,-9.45 -101.11,-32.05 -136.05,-65.75 -37,-36.58 -63.31,-76.45 -80.58,-124.95 -19.31,-51.36 -30.82,-103.99 -33.71,-162.74 -2.88,-58.78 1.22,-113.86 10.67,-170.57 5.34,-32.06 13.97,-68.64 25.89,-109.73 9.45,-41.52 23.42,-79.74 43.14,-122.07 16.85,-40.27 35.76,-77.68 60.01,-116.72 23.83,-36.59 51.78,-67.41 81.77,-95.36 30.01,-27.95 66.17,-47.27 103.99,-61.24 37.4,-11.51 78.49,-14.81 122.89,-7.41 36.99,6.16 69.86,21.78 98.64,46.85 28.36,27.54 51.37,56.72 70.69,92.88 19.32,36.17 33.3,73.98 41.93,113.44 8.63,39.45 9.87,77.67 4.12,112.2 -0.41,17.67 2.06,33.29 12.75,45.21 10.28,14.39 21.79,21.38 39.04,24.25 14.8,2.46 30.42,0 44.4,-7.81 13.97,-7.81 23.82,-21.38 28.75,-35.77l158.21 -477.99z"/>
  <g style="clip-path:url(#id2)">
   <image x="8130.73" y="397.02" width="1515.86" height="3598.76" xlink:href="letras_Images\letras_ImgID3.png"/>
  </g>
  <path class="fil4" d="M9342.92 411.51l-1202.06 96.17 160.26 2820.81 1218.08 -48.06 -176.28 -2868.91z"/>
  <path class="fil5" d="M8892.62 3010.07c48.33,-26.86 83.23,-72.49 110.08,-139.61l0 166.46 271.17 0 0 -2333.13 -271.17 0 0 496.69c-21.47,-42.95 -51.02,-80.54 -91.29,-110.08 -40.26,-29.53 -88.59,-42.95 -139.61,-42.95 -96.65,0 -174.51,26.85 -228.2,80.54 -53.7,53.7 -93.98,128.88 -112.76,220.16 -21.48,93.98 -32.22,198.68 -32.22,316.82l0 743.7c0,120.82 5.36,230.9 21.47,327.55 16.1,99.35 48.33,174.51 93.97,233.59 48.33,56.38 120.82,83.23 217.47,83.23 59.07,0 112.76,-13.43 161.09,-42.96zm-169.14 -220.16c-21.48,-32.22 -37.59,-75.18 -45.64,-131.56 -5.37,-53.69 -10.74,-120.81 -10.74,-195.99l0 -794.71c0,-136.93 10.74,-236.27 32.22,-298.02 21.48,-64.44 67.12,-96.66 131.56,-96.66 72.49,0 120.81,32.22 142.3,96.66 21.47,67.12 32.22,163.77 32.22,289.96l0 789.34c0,104.71 -8.06,185.25 -18.8,241.63 -13.42,53.7 -32.22,93.98 -59.06,112.76 -26.85,21.48 -61.75,32.23 -102.02,32.23 -45.64,0 -77.86,-16.11 -102.02,-45.64z"/>
  <g style="clip-path:url(#id3)">
   <image x="10185.77" y="-10.5" width="2411.02" height="4117.75" xlink:href="letras_Images\letras_ImgID4.png"/>
  </g>
  <path class="fil0" d="M12474.6 461.36l-1895.45 -77.61 -379.94 3103.36 2163.4 170.88 111.98 -3196.64z"/>
  <path class="fil6" d="M12065.88 2749.35c-323.44,-24.4 -614.32,-84.65 -925.99,-118.52l-3.16 -3.93c1.69,-114.48 8.3,-307.27 48.09,-442.7 53.83,-33.57 283.35,30.79 432.78,7.6 15.3,-173.93 53.88,-331 46.41,-493.07l0.39 -3.53c-144.82,-19.32 -293.96,-31.94 -434.47,-57.96l-3.16 -3.93c-18.02,-130.95 30.01,-276.25 41.47,-414.76l3.93 -3.15 10.63 1.16c314.74,5.53 624.18,92.9 932.53,58.31l0.39 -3.54c18.08,-166.46 61.34,-333.76 54.64,-502.91 2.3,-21.25 -916.53,-106.74 -1468.56,-138.05 -134.15,806.04 -177.46,1600.44 -266.73,2422.11 452.64,88.6 970.03,108.98 1451.31,164.86 54.34,-137.44 72.82,-307.44 78.73,-460.89l0.77 -7.08z"/>
  <path class="fil1" d="M12969.59 1044.25l736.82 2507.12 1386.28 -201.15 75.97 -2306.17 -2199.07 0.21z"/>
  <path class="fil4" d="M14597.32 1403.2c-70.93,-19.3 -153.46,-37.94 -251.25,-51.86 -97.79,-13.91 -203.31,-27.38 -312.28,-32.9 -112.82,-5.3 -225.21,-2.88 -337.6,-0.44 -116.27,2.66 -224.15,16.47 -323.84,37.59 -19.12,4.96 -30.08,17.21 -40.82,33.34 -10.73,16.12 -13.73,31.81 -16.51,51.37 -2.79,19.55 -5.79,35.25 -0.84,54.36 1.09,19.34 5.62,30.74 9.91,38.25 17.22,30.07 41.51,48.11 72.89,54.11 31.38,6 66.41,7.91 101.22,5.95l127.65 -7.17c47.19,218.53 94.39,437.07 137.71,655.8 39.46,218.96 78.93,437.93 118.38,656.89 4.75,15.24 9.7,34.37 22.38,53.06 12.69,18.69 25.38,37.38 45.6,51.77 16.56,18.47 36.77,32.86 56.76,43.37 19.99,10.53 43.63,16.95 66.83,15.65 27.08,-1.52 45.34,-21.95 54.55,-65.14 9.43,-39.34 7.26,-78.02 1.44,-112.62 -12.74,-88.53 -25.47,-177.06 -38.2,-265.6 -16.6,-88.32 -33.2,-176.63 -49.81,-264.94 111.95,-10.17 223.7,-24.21 335.23,-42.11 107.87,-13.82 215.53,-31.51 322.75,-56.93 34.59,-5.83 60.8,-22.82 82.7,-47.33 22.12,-20.64 32.21,-48.37 30.69,-75.44 -1.09,-19.34 -21.73,-41.47 -57.85,-62.72 -36.12,-21.26 -75.44,-30.69 -110.27,-28.73 -211.87,27.42 -427.84,51.19 -647.88,71.32 -16.6,-88.32 -37.29,-180.28 -53.89,-268.6 -20.47,-88.1 -41.16,-180.06 -61.62,-268.16 112.39,-2.44 224.78,-4.87 337.38,-3.44 108.75,1.66 217.49,3.32 330.32,8.62 19.34,-1.09 45.76,-14.22 75.62,-35.3 29.86,-21.08 48.11,-41.5 51.11,-57.2 -5.83,-34.59 -34.43,-60.15 -78.49,-84.83z"/>
  <g style="clip-path:url(#id4)">
   <image x="15929.44" y="801.06" width="1749.22" height="3170.34" xlink:href="letras_Images\letras_ImgID5.png"/>
  </g>
  <path class="fil2" d="M17557.45 1530.43c0,0 -532.78,-399.62 -582.72,-366.32 -49.99,33.34 -1032.36,233.13 -1032.36,233.13l149.88 2447.59 1215.51 -166.5 249.7 -2147.9z"/>
  <path class="fil0" d="M16829.93 2219.36l-16.74 320.76c-189.67,203.61 -320.76,357.02 -390.49,454.64 -72.52,97.62 -108.78,195.25 -108.78,287.29 0,94.83 27.89,161.78 83.68,198.03 52.99,39.05 111.57,58.58 175.72,58.58 145.04,0 245.45,-47.42 304.02,-145.04 55.78,-94.83 89.26,-259.39 97.62,-496.48 2.79,-80.89 11.16,-231.51 22.31,-451.86 175.73,-220.35 292.87,-373.75 351.44,-460.22 8.36,-13.94 11.16,-25.1 11.16,-36.26 0,-19.52 -8.37,-27.89 -27.89,-27.89 -8.37,0 -19.53,5.58 -30.69,19.53 -13.94,13.94 -111.56,133.87 -292.87,365.38 2.79,-105.98 11.16,-220.35 30.69,-345.86 33.47,-61.36 50.21,-131.09 50.21,-211.98 0,-80.88 -13.95,-119.93 -39.05,-119.93 -27.89,0 -66.94,19.52 -114.36,58.57 -47.41,41.84 -75.3,69.74 -80.88,89.26 -30.68,-33.47 -64.15,-61.36 -103.2,-86.46 -39.05,-22.31 -72.52,-33.47 -100.41,-33.47 -136.67,0 -248.24,58.57 -331.91,172.93 -86.47,114.35 -128.31,248.24 -128.31,398.86 0,150.61 27.89,259.39 83.68,329.12 52.99,69.74 119.93,103.2 200.83,103.2 80.88,0 145.03,-36.26 195.24,-105.98 47.42,-69.74 100.41,-181.31 158.99,-334.71zm-75.31 -421.17c47.42,30.69 78.1,58.58 92.05,86.47 0,16.74 -2.79,55.78 -5.58,119.93 -66.94,186.87 -122.73,317.96 -164.57,393.28 -41.83,75.3 -86.46,114.35 -133.88,114.35 -47.41,0 -83.67,-33.47 -114.35,-100.41 -30.68,-64.15 -47.41,-150.61 -47.41,-256.6 0,-103.21 30.68,-198.04 89.26,-278.92 58.57,-80.88 111.56,-119.93 164.56,-119.93 33.47,0 72.52,13.94 119.93,41.83zm36.27 1146.36c-11.16,198.03 -27.89,331.91 -53,396.06 -25.1,64.16 -66.94,97.63 -125.51,97.63 -39.05,0 -69.74,-19.53 -92.04,-61.36 -22.31,-41.83 -33.47,-92.04 -33.47,-156.2 0,-136.67 105.98,-320.76 317.96,-549.48l-13.94 273.35z"/>
  <g style="clip-path:url(#id5)">
   <image x="18228.3" y="480.62" width="2459.78" height="3574.38" xlink:href="letras_Images\letras_ImgID6.png"/>
  </g>
  <path class="fil4" d="M18240.15 768.84c17.21,51.66 120.48,2461.22 120.48,2461.22l2203.05 -120.49 -223.76 -2564.48 -2099.76 223.75z"/>
  <path class="fil5" d="M20373.47 2943.07c14.42,-14.42 23.06,-31.71 23.06,-51.89 0,-20.18 -5.77,-34.6 -17.3,-49.02 -14.42,-14.42 -28.83,-20.18 -49.01,-23.06 -25.95,-5.77 -54.78,-8.65 -83.61,-11.53 -28.84,-2.88 -57.67,-2.88 -86.5,-2.88 49.01,-236.42 74.96,-435.35 74.96,-602.57 0,-95.14 -8.65,-181.64 -25.95,-265.25 -17.3,-83.61 -46.13,-155.69 -86.49,-216.24 -40.36,-60.54 -95.14,-109.56 -161.46,-144.15 -66.31,-37.48 -147.03,-54.78 -245.06,-54.78 -92.27,0 -172.99,20.18 -247.95,63.43 -72.09,40.36 -135.51,100.91 -190.29,184.51l0 -715.01c0,-17.3 -5.77,-34.6 -20.18,-49.01 -14.42,-14.42 -31.71,-23.06 -54.78,-23.06l-14.42 0c-34.61,8.65 -74.97,14.42 -118.21,17.3 -43.25,2.88 -89.37,5.77 -132.62,5.77 -46.14,0 -89.38,0 -132.63,-2.88 -40.36,-2.88 -77.84,-5.77 -112.44,-8.65 -31.71,-2.88 -60.54,-5.77 -80.73,-8.65 -20.18,0 -31.71,-2.88 -31.71,-2.88l-8.65 0c-17.3,0 -31.71,5.77 -49.01,20.18 -17.3,11.53 -25.95,28.83 -25.95,51.89 0,20.18 5.77,34.6 17.3,49.01 11.53,14.42 25.95,23.06 46.13,25.95 5.77,0 25.95,2.88 66.31,5.77 40.37,5.77 92.27,8.65 149.93,11.53l0 1677.99c-31.71,2.88 -63.43,8.65 -98.02,14.42 -31.71,2.88 -66.32,8.65 -98.03,17.31 -17.3,2.88 -31.71,11.53 -43.25,25.95 -8.65,11.53 -14.42,28.83 -14.42,46.13 0,20.18 5.77,34.6 20.18,49.01 14.42,14.42 31.71,23.06 51.89,23.06l14.42 0c74.97,-14.42 147.04,-25.95 216.24,-31.71 69.19,-8.65 135.51,-11.53 201.82,-11.53 69.19,0 135.5,2.88 204.71,11.53 69.19,5.77 141.27,17.3 216.24,31.71l14.42 0c17.3,0 34.6,-5.77 51.89,-20.18 14.42,-11.53 23.06,-31.71 23.06,-51.89 0,-17.3 -5.77,-34.6 -17.3,-46.13 -11.53,-14.42 -25.95,-23.06 -43.25,-25.95 -34.6,-8.66 -69.2,-14.43 -103.8,-20.19 -31.71,-5.77 -66.31,-8.65 -98.02,-11.53l2.88 -628.52c0,-37.48 5.77,-74.96 14.42,-115.32 11.53,-40.37 23.06,-80.73 43.25,-118.21 17.3,-40.36 40.36,-77.84 66.31,-112.44 25.95,-34.6 54.79,-66.31 86.5,-92.27 34.6,-28.83 69.19,-49.01 106.67,-66.31 37.48,-14.42 77.84,-23.06 121.1,-23.06 74.96,0 135.5,14.42 184.51,43.25 46.13,25.95 86.5,66.31 112.45,112.45 28.83,49.01 46.13,103.79 57.66,170.1 11.53,63.44 17.3,132.63 17.3,204.71 0,167.23 -25.95,371.92 -77.84,608.34 -69.2,2.88 -135.51,11.53 -201.82,25.95 -17.3,2.88 -31.71,11.53 -43.25,25.96 -11.53,14.42 -17.3,28.83 -17.3,46.13 0,20.18 8.65,37.48 20.18,51.89 14.42,14.42 31.71,23.06 54.78,23.06 2.88,0 2.88,0 5.77,0 2.88,0 2.88,0 5.77,-2.88 46.13,-8.65 95.14,-14.42 141.28,-20.18 49.01,-2.88 95.14,-5.77 144.15,-5.77 31.71,0 63.43,0 95.14,2.88 31.72,0 63.44,5.77 98.03,8.65 2.88,2.88 5.77,2.88 8.65,2.88 17.3,0 34.6,-5.77 51.89,-23.06z"/>
  <path class="fil6" d="M21212.68 821.34c0,54.68 -54.69,2315.5 -54.69,2315.5 0,0 1258.04,127.62 1258.04,54.69 0,-72.93 346.39,-2096.7 346.39,-2096.7l-1549.74 -273.49z"/>
  <path class="fil0" d="M21724.5 2836.29c33.6,-15.26 70.25,-36.65 109.95,-61.08 36.65,-27.49 79.41,-58.04 119.11,-88.57 42.76,-33.6 82.46,-67.19 119.11,-100.79 39.71,-30.54 73.3,-64.14 106.9,-94.68 33.6,-30.55 61.09,-58.04 82.46,-79.41 -12.21,-12.21 -24.44,-24.44 -36.65,-39.7 -12.21,-12.22 -21.38,-24.44 -30.54,-33.6 -12.22,9.16 -30.55,24.44 -51.92,45.81 -24.44,18.33 -48.86,39.7 -76.35,64.14 -30.55,24.44 -58.04,48.86 -88.57,73.3 -30.54,27.49 -61.09,48.86 -88.57,70.25 -30.54,21.38 -54.98,36.65 -76.35,51.91 -21.38,12.22 -39.7,18.33 -48.86,18.33 -6.11,0 -9.16,-3.05 -9.16,-9.16 0,-12.21 3.05,-27.49 9.16,-51.91 9.16,-24.44 18.33,-51.92 27.49,-82.46 12.21,-33.6 24.43,-67.2 36.65,-103.85 15.26,-36.65 27.49,-73.3 42.75,-109.95 15.27,-33.59 27.49,-70.24 39.71,-103.84 12.21,-33.6 21.38,-64.14 30.54,-88.57 3.05,-6.1 3.05,-12.21 3.05,-15.26 3.06,-6.11 3.06,-9.16 3.06,-12.22 0,-15.26 -12.22,-33.59 -30.55,-51.91 -21.38,-21.39 -45.81,-39.71 -73.3,-58.04 -24.43,-18.33 -48.86,-36.65 -73.3,-48.86 -24.43,-12.21 -39.7,-18.33 -45.81,-18.33 -3.05,0 -12.21,12.21 -24.43,39.7 -12.22,27.49 -27.49,61.09 -45.81,106.9 -18.33,42.76 -36.65,91.63 -58.04,149.65 -21.38,54.98 -42.75,113.01 -61.08,171.04 -18.33,58.03 -36.65,116.06 -54.98,174.09 -15.27,54.98 -30.55,106.9 -39.71,149.65 0,18.33 6.11,36.65 21.39,54.98 15.26,18.33 33.59,36.65 54.98,51.92 21.38,15.27 42.75,27.49 64.14,39.7 24.43,9.16 42.75,15.27 58.03,15.27 24.44,0 51.92,-9.16 85.51,-24.44zm479.51 -1414.08c-18.33,-15.27 -39.71,-30.54 -64.14,-45.81 -24.44,-12.21 -48.87,-27.49 -76.36,-36.65 -24.43,-12.21 -45.81,-18.33 -64.14,-18.33 -9.16,0 -21.38,12.21 -36.65,33.6 -18.33,24.43 -33.59,51.91 -48.86,82.46 -18.33,30.54 -30.54,64.14 -42.76,97.73 -12.21,30.55 -18.33,58.04 -18.33,79.41 0,6.11 9.16,15.27 24.44,24.44 18.33,12.21 36.65,24.43 61.09,36.65 21.38,12.21 45.81,24.43 73.3,33.59 24.43,12.22 45.81,15.27 64.14,18.33 6.1,0 12.21,-6.1 24.43,-18.33 9.16,-12.21 18.33,-30.54 30.55,-48.86 12.21,-18.33 21.38,-39.7 33.59,-61.09 12.22,-21.38 21.39,-42.75 30.55,-64.14 9.16,-21.38 15.26,-39.7 21.38,-54.98 9.16,-15.26 12.21,-24.43 12.21,-27.49 0,-6.1 -9.16,-15.26 -24.43,-30.54z"/>
  <g style="clip-path:url(#id6)">
   <image x="11606.89" y="3434.3" width="989.9" height="672.94" xlink:href="letras_Images\letras_ImgID7.png"/>
  </g>
  <g style="clip-path:url(#id7)">
   <image x="11606.89" y="3434.3" width="773.95" height="237.55" xlink:href="letras_Images\letras_ImgID8.png"/>
  </g>
 </g>
</svg>
