<?xml version="1.0" encoding="UTF-8"?>
<!DOCTYPE svg PUBLIC "-//W3C//DTD SVG 1.0//EN" "http://www.w3.org/TR/2001/REC-SVG-20010904/DTD/svg10.dtd">
<!-- Creator: CorelDRAW 2018 (64 Bit) -->
<svg xmlns="http://www.w3.org/2000/svg" xml:space="preserve" width="125.589mm" height="179.917mm" version="1.0" style="shape-rendering:geometricPrecision; text-rendering:geometricPrecision; image-rendering:optimizeQuality; fill-rule:evenodd; clip-rule:evenodd"
viewBox="0 0 125.5888 179.9166"
 xmlns:xlink="http://www.w3.org/1999/xlink">
 <defs>
  <style type="text/css">
   <![CDATA[
    .fil20 {fill:#FEFEFE;fill-rule:nonzero}
    .fil37 {fill:#FBB139;fill-rule:nonzero}
    .fil38 {fill:#FAA838;fill-rule:nonzero}
    .fil12 {fill:#F9A237;fill-rule:nonzero}
    .fil51 {fill:#F47F66;fill-rule:nonzero}
    .fil11 {fill:#EF5064;fill-rule:nonzero}
    .fil45 {fill:#FBEBC6;fill-rule:nonzero}
    .fil43 {fill:#FBDB99;fill-rule:nonzero}
    .fil52 {fill:#F49B37;fill-rule:nonzero}
    .fil49 {fill:#EC513A;fill-rule:nonzero}
    .fil19 {fill:#EA4892;fill-rule:nonzero}
    .fil40 {fill:#F9D485;fill-rule:nonzero}
    .fil13 {fill:#FAEC67;fill-rule:nonzero}
    .fil44 {fill:#F4CE9A;fill-rule:nonzero}
    .fil39 {fill:#EE9339;fill-rule:nonzero}
    .fil10 {fill:#EDE2B1;fill-rule:nonzero}
    .fil18 {fill:#DB94B9;fill-rule:nonzero}
    .fil50 {fill:#AD4337;fill-rule:nonzero}
    .fil42 {fill:#B7D2E9;fill-rule:nonzero}
    .fil15 {fill:#AD539E;fill-rule:nonzero}
    .fil29 {fill:#662D39;fill-rule:nonzero}
    .fil26 {fill:#694E2E;fill-rule:nonzero}
    .fil32 {fill:#642A48;fill-rule:nonzero}
    .fil30 {fill:#6D6A3C;fill-rule:nonzero}
    .fil16 {fill:#7BCBB9;fill-rule:nonzero}
    .fil27 {fill:#666657;fill-rule:nonzero}
    .fil23 {fill:#6D7070;fill-rule:nonzero}
    .fil24 {fill:#624B59;fill-rule:nonzero}
    .fil9 {fill:#66CADC;fill-rule:nonzero}
    .fil36 {fill:#679ED4;fill-rule:nonzero}
    .fil21 {fill:#53304D;fill-rule:nonzero}
    .fil22 {fill:#435D58;fill-rule:nonzero}
    .fil6 {fill:#2F3031;fill-rule:nonzero}
    .fil17 {fill:#22A2D0;fill-rule:nonzero}
    .fil14 {fill:#2DA09E;fill-rule:nonzero}
    .fil41 {fill:#2794CE;fill-rule:nonzero}
    .fil7 {fill:#2592CF;fill-rule:nonzero}
    .fil28 {fill:#3F5E65;fill-rule:nonzero}
    .fil46 {fill:#262629;fill-rule:nonzero}
    .fil4 {fill:#2674B9;fill-rule:nonzero}
    .fil31 {fill:#244C4D;fill-rule:nonzero}
    .fil25 {fill:#265063;fill-rule:nonzero}
    .fil34 {fill:#1E66A7;fill-rule:nonzero}
    .fil8 {fill:#2A5888;fill-rule:nonzero}
    .fil47 {fill:#254B63;fill-rule:nonzero}
    .fil0 {fill:#2C559E;fill-rule:nonzero}
    .fil33 {fill:#314F83;fill-rule:nonzero}
    .fil48 {fill:#283344;fill-rule:nonzero}
    .fil5 {fill:#334C7D;fill-rule:nonzero}
    .fil1 {fill:#344B7D;fill-rule:nonzero}
    .fil2 {fill:#36436E;fill-rule:nonzero}
    .fil3 {fill:#323B5D;fill-rule:nonzero}
    .fil35 {fill:#37355F;fill-rule:nonzero}
   ]]>
  </style>
 </defs>
 <g id="Camada_x0020_1">
  <metadata id="CorelCorpID_0Corel-Layer"/>
  <path class="fil0" d="M79.3404 106.6313l-31.2064 0 -12.5441 71.0823 56.2949 0 -12.5444 -71.0823z"/>
  <path class="fil1" d="M83.61 130.823l-4.2696 -24.1917 -31.2064 0 -4.269 24.1917 39.745 0z"/>
  <path class="fil1" d="M38.7141 160.008l-3.1242 17.7056 56.2949 0 -3.1245 -17.7056 -50.0462 0z"/>
  <path class="fil2" d="M88.7603 160.008l-25.7123 0 0 -29.185 20.562 0 5.1503 29.185z"/>
  <path class="fil3" d="M83.61 130.823l-20.562 0 0 -2.4444c0.2301,0.0025 0.459,0.0039 0.6897,0.0039 6.5243,0 12.8895,-1.0403 18.9047,-3.042l0.9673 5.4825 0.0003 0z"/>
  <path class="fil3" d="M89.367 163.4458l-26.319 0 0 -3.4378 25.7123 0 0.6067 3.4378z"/>
  <path class="fil4" d="M23.4548 177.9732l82.2375 0 0 -14.5274 -82.2375 0 0 14.5274z"/>
  <path class="fil5" d="M23.4548 177.9732l82.2375 0 0 -7.0612 -82.2375 0 0 7.0612z"/>
  <path class="fil6" d="M63.7377 9.047c-15.9381,0 -30.9223,6.2067 -42.1917,17.4762 -11.2696,11.2699 -17.4764,26.2537 -17.4764,42.1915 0,15.9378 6.2068,30.9221 17.4764,42.1916 11.2694,11.2698 26.2536,17.4762 42.1917,17.4762 15.9378,0 30.9213,-6.2064 42.1912,-17.4762 11.2698,-11.2695 17.4762,-26.2538 17.4762,-42.1916 0,-15.9378 -6.2064,-30.9216 -17.4762,-42.1915 -11.2699,-11.2695 -26.2534,-17.4762 -42.1912,-17.4762z"/>
  <path class="fil7" d="M120.681 68.7147c0,31.4495 -25.4945,56.9437 -56.9433,56.9437 -31.4496,0 -56.944,-25.4942 -56.944,-56.9437 0,-31.449 25.4944,-56.9436 56.944,-56.9436 31.4488,0 56.9433,25.4946 56.9433,56.9436z"/>
  <path class="fil7" d="M120.681 68.7147c0,31.4495 -25.4945,56.9437 -56.9433,56.9437 -31.4496,0 -56.944,-25.4942 -56.944,-56.9437 0,-31.449 25.4944,-56.9436 56.944,-56.9436 31.4488,0 56.9433,25.4946 56.9433,56.9436z"/>
  <path class="fil8" d="M117.6055 68.7147c0,29.7509 -24.1173,53.8689 -53.8678,53.8689 -29.7509,0 -53.8687,-24.118 -53.8687,-53.8689 0,-29.7508 24.1178,-53.8681 53.8687,-53.8681 29.7505,0 53.8678,24.1173 53.8678,53.8681z"/>
  <path class="fil9" d="M116.0116 68.7147c0,28.8707 -23.4043,52.2743 -52.2739,52.2743 -28.8706,0 -52.2746,-23.4036 -52.2746,-52.2743 0,-28.8699 23.404,-52.2739 52.2746,-52.2739 28.8696,0 52.2739,23.404 52.2739,52.2739z"/>
  <path class="fil10" d="M89.874 23.4357c-7.6888,-4.4482 -16.6152,-6.9949 -26.1363,-6.9949l0 52.2743 26.1363 -45.2794z"/>
  <path class="fil9" d="M63.7377 16.4408c-9.5218,0 -18.4481,2.5467 -26.1369,6.9949l26.1369 45.2794 0 -52.2743z"/>
  <path class="fil11" d="M116.0116 68.7151l0 -0.0004c0,-9.5214 -2.547,-18.4474 -6.9948,-26.1362l-45.2791 26.1366 52.2739 0z"/>
  <path class="fil12" d="M37.6008 23.4357c-7.9358,4.5907 -14.5525,11.2071 -19.1431,19.1428l45.28 26.1366 -26.1369 -45.2794z"/>
  <path class="fil13" d="M18.4577 42.5785c-4.4476,7.6888 -6.9946,16.6148 -6.9946,26.1362l0 0.0004 52.2746 0 -45.28 -26.1366z"/>
  <path class="fil14" d="M109.0168 42.5785c-4.5904,-7.9357 -11.2071,-14.5521 -19.1428,-19.1428l-26.1363 45.2794 45.2791 -26.1366z"/>
  <path class="fil15" d="M89.874 113.9945c7.9357,-4.5911 14.5521,-11.2078 19.1428,-19.1432l-45.2791 -26.1362 26.1363 45.2794z"/>
  <path class="fil16" d="M63.7377 120.989c9.5211,0 18.4475,-2.5471 26.1363,-6.9945l-26.1363 -45.2794 0 52.2739z"/>
  <path class="fil12" d="M63.7377 68.7151l45.2791 26.1362c4.4478,-7.6887 6.9948,-16.6151 6.9948,-26.1362l-52.2739 0z"/>
  <path class="fil17" d="M18.4577 94.8513c4.5906,7.9354 11.2075,14.5525 19.1431,19.1432l26.1369 -45.2794 -45.28 26.1362z"/>
  <path class="fil18" d="M37.6008 113.9945c7.6888,4.4474 16.6151,6.9945 26.1369,6.9945l0 -52.2739 -26.1369 45.2794z"/>
  <path class="fil19" d="M11.4631 68.7151c0,9.5211 2.547,18.4475 6.9946,26.1362l45.28 -26.1362 -52.2746 0z"/>
  <path class="fil20" d="M63.7377 16.4408l0 52.2743 26.1363 -45.2794c-7.6888,-4.4482 -16.6152,-6.9949 -26.1363,-6.9949zm0.3888 0.3906c8.8558,0.0659 17.557,2.3943 25.2155,6.7475l-25.2155 43.6835 0 -50.431z"/>
  <path class="fil20" d="M63.7377 16.4408c-9.5218,0 -18.4481,2.5467 -26.1369,6.9949l26.1369 45.2794 0 -52.2743zm-0.3894 0.3906l0 50.431 -25.2155 -43.6835c7.6581,-4.3532 16.3597,-6.6816 25.2155,-6.7475z"/>
  <path class="fil20" d="M109.0168 42.5785l-45.2791 26.1366 52.2739 0 0 -0.0004c0,-9.5214 -2.547,-18.4474 -6.9948,-26.1362zm-0.1433 0.5323c4.3529,7.6581 6.6813,16.3598 6.7473,25.2152l-50.431 0 43.6837 -25.2152z"/>
  <path class="fil20" d="M37.6008 23.4357c-7.9358,4.5907 -14.5525,11.2071 -19.1431,19.1428l45.28 26.1366 -26.1369 -45.2794zm-0.1411 0.5331l25.2147 43.6834 -43.6834 -25.2155c4.4811,-7.6137 10.8545,-13.987 18.4687,-18.4679z"/>
  <path class="fil20" d="M18.4577 42.5785c-4.4476,7.6888 -6.9946,16.6148 -6.9946,26.1362l0 0.0004 52.2746 0 -45.28 -26.1366zm0.1437 0.5323l43.6832 25.2152 -50.4308 -0.0004c0.0662,-8.855 2.3951,-17.5567 6.7476,-25.2148z"/>
  <path class="fil20" d="M89.874 23.4357l-26.1363 45.2794 45.2791 -26.1366c-4.5904,-7.9357 -11.2071,-14.5521 -19.1428,-19.1428zm0.1414 0.5331c7.6137,4.4809 13.9873,10.8546 18.4683,18.4679l-43.6834 25.2155 25.2151 -43.6834z"/>
  <path class="fil20" d="M63.7377 68.7151l26.1363 45.2794c7.9357,-4.5911 14.5521,-11.2078 19.1428,-19.1432l-45.2791 -26.1362zm1.0626 1.0629l43.6834 25.2152c-4.481,7.6133 -10.855,13.9865 -18.4683,18.4679l-25.2151 -43.6831z"/>
  <path class="fil20" d="M63.7377 68.7151l0 52.2739c9.5211,0 18.4475,-2.5471 26.1363,-6.9945l-26.1363 -45.2794zm0.3888 1.4527l25.2155 43.6834c-7.6585,4.3526 -16.3597,6.681 -25.2155,6.7469l0 -50.4303z"/>
  <path class="fil20" d="M116.0116 68.7151l-52.2739 0 45.2791 26.1362c4.4478,-7.6887 6.9948,-16.6151 6.9948,-26.1362zm-0.3908 0.3891c-0.066,8.8554 -2.3944,17.5567 -6.7473,25.2152l-43.6837 -25.2152 50.431 0z"/>
  <path class="fil20" d="M63.7377 68.7151l-45.28 26.1362c4.5906,7.9354 11.2075,14.5525 19.1431,19.1432l26.1369 -45.2794zm-1.0633 1.0629l-25.2147 43.6831c-7.6142,-4.481 -13.9874,-10.8539 -18.4687,-18.4679l43.6834 -25.2152z"/>
  <path class="fil20" d="M63.7377 68.7151l-26.1369 45.2794c7.6888,4.4474 16.6151,6.9945 26.1369,6.9945l0 -52.2739zm-0.3894 1.4527l0 50.4303c-8.8558,-0.0659 -17.5571,-2.3943 -25.2155,-6.7469l25.2155 -43.6834z"/>
  <path class="fil20" d="M63.7377 68.7151l-52.2746 0c0,9.5211 2.547,18.4475 6.9946,26.1362l45.28 -26.1362zm-1.4531 0.3891l-43.6832 25.2152c-4.3525,-7.6585 -6.6814,-16.3598 -6.7476,-25.2152l50.4308 0z"/>
  <path class="fil21" d="M74.8396 87.1703l-0.7147 -1.2379c2.7922,-1.6887 5.141,-4.0375 6.8294,-6.8298l1.2263 0.7077c-1.8091,3.012 -4.3342,5.5432 -7.341,7.36z"/>
  <path class="fil22" d="M64.1265 90.2515l0 -1.4348c3.3771,-0.0642 6.5518,-0.9616 9.325,-2.4948l0.7147 1.2386c-2.9827,1.658 -6.4005,2.6268 -10.0397,2.691z"/>
  <path class="fil23" d="M74.5049 87.3686l-0.7148 -1.2383c0.1122,-0.0649 0.224,-0.1312 0.3348,-0.1979l0.7147 1.2379c-0.1104,0.0667 -0.2229,0.1334 -0.3347,0.1983zm7.6757 -7.5583l-1.2263 -0.7077c0.0671,-0.1107 0.1334,-0.2229 0.1983,-0.3351l1.2255 0.7073c-0.0649,0.1126 -0.1308,0.2244 -0.1975,0.3355z"/>
  <path class="fil23" d="M63.7377 90.255l0 -1.4347c0.1302,0 0.2593,-0.0015 0.3888,-0.0036l0 1.4348c-0.1291,0.0024 -0.259,0.0035 -0.3888,0.0035zm10.4285 -2.6945l-0.7147 -1.2386c0.1139,-0.0632 0.2257,-0.1263 0.3386,-0.1916l0.7148 1.2383c-0.1122,0.0649 -0.2251,0.1291 -0.3387,0.1919z"/>
  <path class="fil24" d="M63.3483 90.2515c-3.6393,-0.0642 -7.0567,-1.033 -10.0397,-2.6907l0.715 -1.2389c2.7729,1.5332 5.9472,2.4306 9.3247,2.4948l0 1.4348z"/>
  <path class="fil25" d="M52.6351 87.1703c-3.0071,-1.8164 -5.5319,-4.348 -7.341,-7.3596l1.2263 -0.7081c1.6884,2.7923 4.0372,5.1411 6.8294,6.8298l-0.7147 1.2379z"/>
  <path class="fil26" d="M82.5694 79.1362l-1.2252 -0.7074c1.5335,-2.7732 2.4306,-5.9467 2.4948,-9.3246l1.3952 0c-0.0578,3.6343 -1.0174,7.0496 -2.6648,10.032z"/>
  <path class="fil27" d="M73.4515 51.108c-2.7732,-1.5336 -5.9472,-2.4307 -9.325,-2.4949l0 -1.3543c3.6248,0.0642 7.0301,1.0255 10.0044,2.6716l-0.6794 1.1776z"/>
  <path class="fil28" d="M54.0233 51.108l-0.6795 -1.1776c2.9747,-1.6461 6.3793,-2.607 10.0045,-2.6716l0 1.3543c-3.3775,0.0642 -6.5518,0.9617 -9.325,2.4949z"/>
  <path class="fil29" d="M85.2328 68.326l-1.3938 0c-0.0642,-3.3775 -0.9617,-6.5522 -2.4945,-9.325l1.191 -0.6876c1.6563,2.9747 2.6264,6.3836 2.6973,10.0126z"/>
  <path class="fil26" d="M46.5201 58.3272l-1.1903 -0.6869c1.8133,-2.9961 4.3388,-5.5153 7.3399,-7.3208l0.6801 1.1779c-2.7922,1.6884 -5.1414,4.0376 -6.8297,6.8298z"/>
  <path class="fil30" d="M43.6361 68.3256l-1.3945 0c0.0712,-3.629 1.0414,-7.0375 2.6973,-10.0122l1.1913 0.6876c-1.5328,2.7732 -2.4299,5.9475 -2.4941,9.3246z"/>
  <path class="fil31" d="M80.9547 58.3272c-1.6884,-2.7922 -4.0376,-5.1414 -6.8298,-6.8298l0.6802 -1.1779c3.001,1.8055 5.5266,4.3247 7.3395,7.3208l-1.1899 0.6869z"/>
  <path class="fil23" d="M73.7901 51.2995c-0.1122,-0.0649 -0.225,-0.1287 -0.3386,-0.1915l0.6794 -1.1776c0.114,0.0628 0.2268,0.1266 0.339,0.1915l-0.6798 1.1776zm-9.6636 -2.6864c-0.1295,-0.0025 -0.2586,-0.0035 -0.3888,-0.0035l0 -1.354c0.1298,0 0.2597,0.0011 0.3888,0.0032l0 1.3543z"/>
  <path class="fil23" d="M53.6846 51.2995l-0.6798 -1.1779c0.1125,-0.0649 0.2251,-0.1284 0.339,-0.1912l0.6795 1.1776c-0.114,0.0628 -0.2258,0.1263 -0.3387,0.1915zm9.6637 -2.6864l0 -1.3543c0.1291,-0.0021 0.2596,-0.0032 0.3894,-0.0032l0 1.354c-0.1302,0 -0.26,0.0014 -0.3894,0.0035z"/>
  <path class="fil23" d="M85.2371 68.7151l-1.3946 0c0,-0.0004 0,-0.0004 0,-0.0004l0 0c0,-0.1301 -0.001,-0.2592 -0.0035,-0.3887l1.3938 0c0.0025,0.1298 0.0039,0.2586 0.0043,0.3891zm-3.8926 -9.7141c-0.0628,-0.1136 -0.1266,-0.2265 -0.1915,-0.3387l1.1902 -0.6872c0.0653,0.1126 0.1291,0.2247 0.1923,0.3383l-1.191 0.6876z"/>
  <path class="fil23" d="M46.3218 58.6623l-1.1903 -0.6872c0.0649,-0.1122 0.1313,-0.224 0.1983,-0.3348l1.1903 0.6869c-0.0674,0.1115 -0.133,0.2223 -0.1983,0.3351zm7.028 -7.1649l-0.6801 -1.1779c0.1111,-0.067 0.2229,-0.133 0.3351,-0.1979l0.6798 1.1779c-0.1122,0.0649 -0.224,0.1309 -0.3348,0.1979z"/>
  <g>
   <path class="fil23" d="M43.6326 68.7151l-1.3949 0c0,-0.1305 0.0014,-0.2596 0.0039,-0.3895l1.3945 0c-0.0025,0.1299 -0.0035,0.259 -0.0035,0.3891l0 0 0 0.0004zm2.4976 -9.7141l-1.1913 -0.6876c0.0631,-0.1136 0.1274,-0.2261 0.1926,-0.3383l1.1903 0.6872c-0.0649,0.1122 -0.1288,0.2255 -0.1916,0.3387z"/>
  </g>
  <path class="fil23" d="M81.153 58.6623c-0.0653,-0.1125 -0.1309,-0.2236 -0.1983,-0.3351l1.1899 -0.6869c0.0674,0.1112 0.1337,0.2226 0.1986,0.3348l-1.1902 0.6872zm-7.0281 -7.1649c-0.1108,-0.067 -0.2226,-0.133 -0.3348,-0.1979l0.6798 -1.1776c0.1126,0.065 0.224,0.1306 0.3352,0.1976l-0.6802 1.1779z"/>
  <path class="fil23" d="M82.3781 79.4748l-1.2255 -0.7073c0.0649,-0.1122 0.1288,-0.2251 0.1916,-0.3387l1.2252 0.7074c-0.0625,0.1128 -0.1267,0.2268 -0.1913,0.3386zm2.8561 -10.3706l-1.3952 0c0.0025,-0.1298 0.0035,-0.2593 0.0035,-0.3895l1.3946 0.0004c0,0.013 0,0.0268 0,0.0399 0,0.1167 -0.0007,0.2328 -0.0029,0.3492z"/>
  <path class="fil23" d="M52.9702 87.3686c-0.1125,-0.0649 -0.224,-0.1313 -0.3351,-0.1983l0.7147 -1.2379c0.1115,0.067 0.2223,0.1327 0.3352,0.1979l-0.7148 1.2383zm-7.6761 -7.5579c-0.067,-0.1115 -0.1326,-0.2233 -0.1975,-0.3359l1.2255 -0.7073c0.065,0.1122 0.1313,0.2244 0.1983,0.3351l-1.2263 0.7081z"/>
  <path class="fil23" d="M63.7377 90.255c-0.1298,0 -0.2603,-0.0011 -0.3894,-0.0035l0 -1.4348c0.1294,0.0021 0.2592,0.0036 0.3894,0.0036l0 1.4347zm-10.4291 -2.6942c-0.1129,-0.0628 -0.2269,-0.1273 -0.3384,-0.1922l0.7148 -1.2383c0.1122,0.0649 0.225,0.1288 0.3386,0.1916l-0.715 1.2389z"/>
  <path class="fil32" d="M44.9054 79.1362c-1.6478,-2.9824 -2.607,-6.3977 -2.6653,-10.032l1.396 0c0.0642,3.3772 0.9617,6.5514 2.4945,9.3246l-1.2252 0.7074z"/>
  <path class="fil23" d="M45.0966 79.4748c-0.0646,-0.1118 -0.1288,-0.2258 -0.1912,-0.3386l1.2252 -0.7074c0.0631,0.114 0.1263,0.2262 0.1915,0.3387l-1.2255 0.7073zm-1.4605 -10.3706l-1.396 0c-0.0017,-0.1164 -0.0024,-0.2325 -0.0024,-0.3492 0,-0.0131 0,-0.0269 0,-0.0399l1.3949 0c0,0.1298 0.001,0.2593 0.0035,0.3891z"/>
  <path class="fil33" d="M83.8425 68.7147c0,11.1037 -9.0018,20.1056 -20.1048,20.1056 -11.1044,0 -20.1051,-9.0019 -20.1051,-20.1056 0,-11.1036 9.0007,-20.1051 20.1051,-20.1051 11.103,0 20.1048,9.0015 20.1048,20.1051z"/>
  <path class="fil34" d="M83.8221 69.5335c0.0109,-0.272 0.0204,-0.5443 0.0204,-0.8188 0,-11.1036 -9.0018,-20.1051 -20.1048,-20.1051 -11.1044,0 -20.1051,9.0015 -20.1051,20.1051 0,0.2745 0.0091,0.5468 0.0201,0.8188l40.1694 0z"/>
  <path class="fil35" d="M79.6921 68.7147c0,8.8114 -7.1438,15.9551 -15.9544,15.9551 -8.812,0 -15.9551,-7.1437 -15.9551,-15.9551 0,-8.8109 7.1431,-15.9547 15.9551,-15.9547 8.8106,0 15.9544,7.1438 15.9544,15.9547z"/>
  <path class="fil36" d="M78.5248 68.7147c0,8.1668 -6.621,14.7874 -14.7871,14.7874 -8.1671,0 -14.7874,-6.6206 -14.7874,-14.7874 0,-8.1668 6.6203,-14.7873 14.7874,-14.7873 8.1661,0 14.7871,6.6205 14.7871,14.7873z"/>
  <path class="fil37" d="M64.0499 56.4529l3.4498 6.991 7.7149 1.1208 -5.5823 5.4412 1.318 7.6842 -6.9004 -3.628 -6.8999 3.628 1.3176 -7.6842 -5.5827 -5.4412 7.7152 -1.1208 3.4498 -6.991z"/>
  <path class="fil38" d="M64.0499 68.1923l0 -0.0004 0 0.0004z"/>
  <path class="fil39" d="M64.0499 68.1919l0 -7.5487c0.6047,-0.1972 1.2161,-0.3591 1.8274,-0.4865l1.6224 3.2872 -3.4498 4.748z"/>
  <path class="fil39" d="M69.6323 70.0059l-5.5824 -1.8133 0 -0.0003 11.1647 -3.6276 -5.5823 5.4412z"/>
  <path class="fil39" d="M70.9503 77.6901l-6.9004 -3.628 0 -5.8695 6.9004 9.4975z"/>
  <path class="fil39" d="M57.15 77.6901l1.3176 -7.6842 5.5823 -1.8133 -6.8999 9.4975z"/>
  <path class="fil39" d="M64.0499 68.1926l0 0 -7.4295 -2.4144c0.5772,-0.7528 1.2178,-1.4298 1.9054,-2.033l2.0743 -0.3013 3.4498 4.7484 0 0.0003z"/>
  <path class="fil40" d="M63.9914 67.9309l-0.2382 -2.9214 0.1013 -4.3014c0.0356,-0.012 0.0702,-0.0236 0.1062,-0.0356l0.0229 5.4162 0.0078 1.8422z"/>
  <path class="fil40" d="M64.3886 67.9309l2.8268 -1.1109 7.5593 -2.2239 -10.3861 3.3348z"/>
  <path class="fil40" d="M70.7732 77.2061l-6.4799 -8.8406 2.3506 2.8374 4.1293 6.0032z"/>
  <path class="fil40" d="M57.6551 77.3014l6.2784 -8.8086 -1.8637 2.9958 -4.4147 5.8128z"/>
  <path class="fil40" d="M63.7215 68.1856l-2.9542 -0.6671 -4.2763 -1.5688c0.0247,-0.0332 0.049,-0.0656 0.0737,-0.0981l7.1568 2.334z"/>
  <path class="fil41" d="M43.9494 69.0474c0,0 0.8756,-15.7279 14.8844,-19.1001 0,0 9.339,-2.7241 15.9547,2.8533 0,0 -23.9321,-11.0903 -30.8391,16.2468z"/>
  <path class="fil42" d="M55.5261 80.0403c-8.7556,-7.3935 -4.475,-16.4412 -4.475,-16.4412 4.0859,-7.9774 11.4794,-8.5608 11.4794,-8.5608 0.646,-0.0826 1.2668,-0.1207 1.8655,-0.1207 7.8747,0 11.6572,6.6386 11.6572,6.6386 -1.6824,-1.1441 -4.0746,-1.7643 -6.6777,-1.7643 -1.1399,0 -2.3195,0.1189 -3.4982,0.3648l-1.8274 -3.7038 -2.6123 5.2941c-1.0297,0.5447 -2.0115,1.2086 -2.9118,1.9982l-5.6409 0.8195 2.7506 2.6807c-4.1374,7.0623 -0.1094,12.7949 -0.1094,12.7949z"/>
  <path class="fil43" d="M55.6355 67.2454l-2.7506 -2.6807 3.7355 1.2135c-0.0187,0.0244 -0.0374,0.0487 -0.0557,0.0734l-3.0699 -1.0012 2.9962 1.0993c-0.272,0.3662 -0.5292,0.75 -0.7705,1.1518 -0.0286,0.048 -0.0572,0.0959 -0.085,0.1439zm5.8021 -5.4984l2.6123 -5.2941 1.8274 3.7038 0 0 -1.8274 -3.7038 0 4.1903c-0.0296,0.0095 -0.0599,0.0194 -0.0892,0.0293l-0.0162 -3.7786 -0.09 3.8142c-0.823,0.2794 -1.6344,0.6248 -2.4169,1.0389z"/>
  <path class="fil44" d="M64.0499 60.6432l0 -4.1903 1.8274 3.7038c-0.6113,0.1274 -1.2227,0.2893 -1.8274,0.4865z"/>
  <path class="fil44" d="M56.6204 65.7782l-3.7355 -1.2135 5.6409 -0.8195c-0.6876,0.6032 -1.3282,1.2802 -1.9054,2.033z"/>
  <path class="fil45" d="M63.8545 60.7081l0.09 -3.8142 0.0162 3.7786c-0.036,0.012 -0.0706,0.0236 -0.1062,0.0356z"/>
  <path class="fil45" d="M56.491 65.9497l-2.9962 -1.0993 3.0699 1.0012c-0.0247,0.0325 -0.049,0.0649 -0.0737,0.0981z"/>
  <path class="fil46" d="M56.739 12.1969l-0.2636 -0.7743 0.7945 0 0.2332 0.6858c-0.2537,0.0278 -0.5115,0.0575 -0.7641,0.0885zm13.9971 0c-0.2526,-0.031 -0.5108,-0.0607 -0.7644,-0.0885l0.2331 -0.6858 0.7949 0 -0.2636 0.7743z"/>
  <path class="fil47" d="M57.7525 15.1754l-1.0135 -2.9785c0.2526,-0.031 0.5104,-0.0607 0.7641,-0.0885l1.017 2.9876c-0.2568,0.0247 -0.5118,0.0512 -0.7676,0.0794zm11.9697 0c-0.2557,-0.0282 -0.5104,-0.0547 -0.7672,-0.0794l1.0167 -2.9876c0.2536,0.0278 0.5118,0.0575 0.7644,0.0885l-1.0139 2.9785z"/>
  <path class="fil48" d="M58.2792 16.7224l-0.5267 -1.547c0.2558,-0.0282 0.5108,-0.0547 0.7676,-0.0794l0.5281 1.5519c-0.2564,0.0229 -0.5136,0.048 -0.769,0.0745zm10.9167 0c-0.2554,-0.0265 -0.5126,-0.0516 -0.7694,-0.0745l0.5285 -1.5519c0.2568,0.0247 0.5115,0.0512 0.7672,0.0794l-0.5263 1.547z"/>
  <path class="fil28" d="M69.1959 16.7224c-0.2561,-0.0265 -0.5122,-0.0512 -0.7694,-0.0741l0 -0.0004c0.2568,0.0229 0.514,0.048 0.7694,0.0745l0 0zm-10.9167 0l0 0c0.2554,-0.0265 0.5126,-0.0516 0.769,-0.0745l0 0.0004c-0.2571,0.0229 -0.5129,0.0476 -0.769,0.0741z"/>
  <path class="fil27" d="M64.1265 31.6173l0 -2.335 4.1702 -12.2523c0.2568,0.0226 0.5133,0.0472 0.7694,0.0734l-4.9396 14.5139z"/>
  <path class="fil28" d="M63.3483 31.6163l-4.9393 -14.5129c0.2561,-0.0265 0.5126,-0.0508 0.7694,-0.0734l4.1699 12.2516 0 2.3347z"/>
  <path class="fil23" d="M63.7377 32.7603l0 -2.335 0.3888 -1.143 0 2.335 -0.3888 1.143zm5.3284 -15.6569c-0.2561,-0.0262 -0.5126,-0.0508 -0.7694,-0.0734l0.1298 -0.3817c0.2572,0.0229 0.5133,0.0476 0.7694,0.0741l-0.1298 0.381z"/>
  <path class="fil23" d="M63.7377 32.7603l-0.3894 -1.144 0 -2.3347 0.3894 1.1437 0 2.335zm-5.3287 -15.6569l-0.1298 -0.381c0.2561,-0.0265 0.5119,-0.0512 0.769,-0.0741l0.1302 0.3817c-0.2568,0.0226 -0.5133,0.0469 -0.7694,0.0734z"/>
  <path class="fil49" d="M63.7377 30.4253l-7.8147 -22.9591 15.6284 0 -7.8137 22.9591z"/>
  <path class="fil50" d="M63.7377 30.4253l-0.3637 -22.9591 8.1774 0 -7.8137 22.9591z"/>
  <path class="fil51" d="M63.114 27.3124l-6.3232 -18.8733 5.8371 15.5656 0.4861 3.3077z"/>
  <path class="fil52" d="M29.0208 170.2481c0,1.4237 -1.1537,2.5777 -2.5781,2.5777 -1.4234,0 -2.5779,-1.154 -2.5779,-2.5777 0,-1.4238 1.1545,-2.5785 2.5779,-2.5785 1.4244,0 2.5781,1.1547 2.5781,2.5785z"/>
  <path class="fil37" d="M27.9592 169.9662c0,1.029 -0.834,1.8633 -1.8631,1.8633 -1.0287,0 -1.8626,-0.8343 -1.8626,-1.8633 0,-1.0287 0.8339,-1.8631 1.8626,-1.8631 1.0291,0 1.8631,0.8344 1.8631,1.8631z"/>
  <path class="fil40" d="M25.7927 170.0857c-0.4754,0 -0.8609,-0.3858 -0.8609,-0.8614 0,-0.4755 0.3855,-0.8611 0.8609,-0.8611 0.4761,0 0.8613,0.3856 0.8613,0.8611 0,0.4756 -0.3852,0.8614 -0.8613,0.8614z"/>
  <path class="fil52" d="M41.5014 170.2481c0,1.4237 -1.1539,2.5777 -2.5781,2.5777 -1.4234,0 -2.5784,-1.154 -2.5784,-2.5777 0,-1.4238 1.155,-2.5785 2.5784,-2.5785 1.4242,0 2.5781,1.1547 2.5781,2.5785z"/>
  <path class="fil37" d="M40.4399 169.9662c0,1.029 -0.8339,1.8633 -1.863,1.8633 -1.0294,0 -1.8637,-0.8343 -1.8637,-1.8633 0,-1.0287 0.8343,-1.8631 1.8637,-1.8631 1.0291,0 1.863,0.8344 1.863,1.8631z"/>
  <path class="fil40" d="M38.2732 170.0857c-0.4756,0 -0.8608,-0.3858 -0.8608,-0.8614 0,-0.4755 0.3852,-0.8611 0.8608,-0.8611 0.4755,0 0.8614,0.3856 0.8614,0.8611 0,0.4756 -0.3859,0.8614 -0.8614,0.8614z"/>
  <path class="fil52" d="M53.982 170.2481c0,1.4237 -1.155,2.5777 -2.5784,2.5777 -1.4235,0 -2.5781,-1.154 -2.5781,-2.5777 0,-1.4238 1.1546,-2.5785 2.5781,-2.5785 1.4234,0 2.5784,1.1547 2.5784,2.5785z"/>
  <path class="fil37" d="M52.9201 169.9662c0,1.029 -0.8346,1.8633 -1.8633,1.8633 -1.0291,0 -1.8634,-0.8343 -1.8634,-1.8633 0,-1.0287 0.8343,-1.8631 1.8634,-1.8631 1.0287,0 1.8633,0.8344 1.8633,1.8631z"/>
  <path class="fil40" d="M50.7537 170.0857c-0.4759,0 -0.8607,-0.3858 -0.8607,-0.8614 0,-0.4755 0.3848,-0.8611 0.8607,-0.8611 0.4756,0 0.8615,0.3856 0.8615,0.8611 0,0.4756 -0.3859,0.8614 -0.8615,0.8614z"/>
  <path class="fil52" d="M66.4619 170.2481c0,1.4237 -1.1543,2.5777 -2.5778,2.5777 -1.4234,0 -2.5781,-1.154 -2.5781,-2.5777 0,-1.4238 1.1547,-2.5785 2.5781,-2.5785 1.4235,0 2.5778,1.1547 2.5778,2.5785z"/>
  <path class="fil37" d="M65.4004 169.9662c0,1.029 -0.834,1.8633 -1.8631,1.8633 -1.029,0 -1.8633,-0.8343 -1.8633,-1.8633 0,-1.0287 0.8343,-1.8631 1.8633,-1.8631 1.0291,0 1.8631,0.8344 1.8631,1.8631z"/>
  <path class="fil40" d="M63.234 170.0857c-0.4756,0 -0.8612,-0.3858 -0.8612,-0.8614 0,-0.4755 0.3856,-0.8611 0.8612,-0.8611 0.4755,0 0.8611,0.3856 0.8611,0.8611 0,0.4756 -0.3856,0.8614 -0.8611,0.8614z"/>
  <path class="fil52" d="M78.9424 170.2481c0,1.4237 -1.1542,2.5777 -2.5777,2.5777 -1.4238,0 -2.5781,-1.154 -2.5781,-2.5777 0,-1.4238 1.1543,-2.5785 2.5781,-2.5785 1.4235,0 2.5777,1.1547 2.5777,2.5785z"/>
  <path class="fil37" d="M77.8809 169.9662c0,1.029 -0.8343,1.8633 -1.863,1.8633 -1.029,0 -1.8634,-0.8343 -1.8634,-1.8633 0,-1.0287 0.8344,-1.8631 1.8634,-1.8631 1.0287,0 1.863,0.8344 1.863,1.8631z"/>
  <path class="fil40" d="M75.7149 170.0857c-0.4759,0 -0.8611,-0.3858 -0.8611,-0.8614 0,-0.4755 0.3852,-0.8611 0.8611,-0.8611 0.4755,0 0.8611,0.3856 0.8611,0.8611 0,0.4756 -0.3856,0.8614 -0.8611,0.8614z"/>
  <path class="fil52" d="M91.4227 170.2481c0,1.4237 -1.154,2.5777 -2.5778,2.5777 -1.4238,0 -2.5781,-1.154 -2.5781,-2.5777 0,-1.4238 1.1543,-2.5785 2.5781,-2.5785 1.4238,0 2.5778,1.1547 2.5778,2.5785z"/>
  <path class="fil37" d="M90.3615 169.9662c0,1.029 -0.8347,1.8633 -1.8637,1.8633 -1.0287,0 -1.8627,-0.8343 -1.8627,-1.8633 0,-1.0287 0.834,-1.8631 1.8627,-1.8631 1.029,0 1.8637,0.8344 1.8637,1.8631z"/>
  <path class="fil40" d="M88.1951 170.0857c-0.4755,0 -0.8611,-0.3858 -0.8611,-0.8614 0,-0.4755 0.3856,-0.8611 0.8611,-0.8611 0.4755,0 0.8608,0.3856 0.8608,0.8611 0,0.4756 -0.3853,0.8614 -0.8608,0.8614z"/>
  <path class="fil52" d="M103.9036 170.2481c0,1.4237 -1.1543,2.5777 -2.5778,2.5777 -1.4241,0 -2.5781,-1.154 -2.5781,-2.5777 0,-1.4238 1.154,-2.5785 2.5781,-2.5785 1.4235,0 2.5778,1.1547 2.5778,2.5785z"/>
  <path class="fil37" d="M102.8417 169.9662c0,1.029 -0.8343,1.8633 -1.8626,1.8633 -1.0294,0 -1.8638,-0.8343 -1.8638,-1.8633 0,-1.0287 0.8344,-1.8631 1.8638,-1.8631 1.0283,0 1.8626,0.8344 1.8626,1.8631z"/>
  <path class="fil40" d="M100.6753 170.0857c-0.4755,0 -0.8611,-0.3858 -0.8611,-0.8614 0,-0.4755 0.3856,-0.8611 0.8611,-0.8611 0.4756,0 0.8612,0.3856 0.8612,0.8611 0,0.4756 -0.3856,0.8614 -0.8612,0.8614z"/>
  <path class="fil37" d="M63.114 1.1345l1.9149 3.8802 4.2824 0.6223 -3.0985 3.0198 0.7313 4.2654 -3.8301 -2.0133 -3.8294 2.0133 0.731 -4.2654 -3.0985 -3.0198 4.2824 -0.6223 1.9145 -3.8802z"/>
  <path class="fil39" d="M63.114 7.6503l0 -6.5158 1.9149 3.8802 -1.9149 2.6356z"/>
  <path class="fil39" d="M66.2128 8.6568l-3.0988 -1.0065 6.1973 -2.0133 -3.0985 3.0198z"/>
  <path class="fil39" d="M66.9441 12.9222l-3.8301 -2.0133 0 -3.2586 3.8301 5.2719z"/>
  <path class="fil39" d="M59.2846 12.9222l0.731 -4.2654 3.0984 -1.0065 -3.8294 5.2719z"/>
  <path class="fil39" d="M63.114 7.6503l0 0 -6.1969 -2.0133 4.2824 -0.6223 1.9145 2.6356z"/>
  <path class="fil40" d="M63.0816 7.5053l-0.1323 -1.6213 0.1062 -4.5047 0.0215 5.1037 0.0046 1.0223z"/>
  <path class="fil40" d="M63.302 7.5053l1.5692 -0.6166 4.1956 -1.234 -5.7648 1.8506z"/>
  <path class="fil40" d="M66.846 12.6538l-3.5965 -4.9075 1.3042 1.5751 2.2923 3.3324z"/>
  <path class="fil40" d="M59.5647 12.7063l3.4851 -4.8891 -1.0347 1.663 -2.4504 3.2261z"/>
  <path class="fil40" d="M62.932 7.6468l-1.6404 -0.3704 -4.0365 -1.4813 5.6769 1.8517z"/>
 </g>
</svg>
